# xmcd CD database file
#
# Track frame offsets:
#	150
#	2368
#	17879
#	36455
#	48316
#	65722
#	80982
#	95434
#	116462
#	136153
#	160190
#	180271
#	200686
#	219401
#	230345
#	244463
#	263123
#	278362
#	300051
#
# Disc length: 4219 seconds
#
# Revision: 0
# Processed by: cddbd v1.5PL3 Copyright (c) Steve Scherf et al.
# Submitted via: freeDB plugin v1.0
#
DISCID=f9107913
DTITLE=Inoue Yousui - Inoue Yousui Super Best
DYEAR=1900
DGENRE=Folk
TTITLE0=少年時代
TTITLE1=ありがとう
TTITLE2=Make-up Shadow
TTITLE3=夢の中へ
TTITLE4=リバーサイドホテル
TTITLE5=心もよう
TTITLE6=いっそセレナーデ
TTITLE7=飾りじゃないのよ涙は
TTITLE8=ダンスはうまく踊れない
TTITLE9=ワインレッドの心
TTITLE10=夏の終わりのハーモニー
TTITLE11=TEENAGER
TTITLE12=東へ西へ
TTITLE13=白い一日
TTITLE14=パンキー・ロカビリー
TTITLE15=月ひとしずく
TTITLE16=森花処女林
TTITLE17=新しいラプソディ
TTITLE18=なごり雪
EXTD=
EXTT0=
EXTT1=
EXTT2=
EXTT3=
EXTT4=
EXTT5=
EXTT6=
EXTT7=
EXTT8=
EXTT9=
EXTT10=
EXTT11=
EXTT12=
EXTT13=
EXTT14=
EXTT15=
EXTT16=
EXTT17=
EXTT18=
PLAYORDER=
